<svg width="16" height="15" viewBox="0 0 16 15" xmlns="http://www.w3.org/2000/svg"><path d="M5.872 7.29c.176.178.422.284.69.284.273 0 .516-.106.695-.285.18-.18.286-.427.286-.694 0-.27-.11-.516-.286-.696h-.003c-.176-.18-.422-.288-.693-.288-.266 0-.512.11-.688.288h-.004c-.176.18-.29.426-.29.696 0 .267.114.514.287.693h.007zm.483-.9v-.004c.054-.048.124-.082.206-.082.083 0 .156.034.208.082v.004c.055.05.085.12.085.206 0 .076-.03.152-.085.2-.052.055-.125.09-.207.09-.08 0-.154-.035-.205-.09-.052-.048-.082-.124-.082-.2 0-.085.03-.155.082-.206zM5.872 9.9c.176.178.422.287.69.287.27 0 .516-.11.692-.288h.003c.176-.177.286-.424.286-.694 0-.267-.11-.513-.286-.693h-.003c-.176-.18-.422-.288-.693-.288-.266 0-.512.11-.688.288h-.004c-.176.18-.29.426-.29.693 0 .27.114.517.29.693h.004zm.483-.9c.054-.05.124-.083.206-.083.083 0 .156.034.208.082.055.054.085.124.085.206 0 .08-.03.155-.085.204v.003c-.052.05-.125.085-.207.085-.08 0-.15-.034-.205-.085V9.41c-.052-.05-.082-.125-.082-.204 0-.082.03-.152.082-.207zm4.84-1.71c.176.178.422.284.692.284.274 0 .517-.106.696-.285.176-.18.286-.427.286-.694 0-.27-.11-.516-.287-.696h-.003c-.176-.18-.425-.288-.693-.288-.267 0-.516.11-.692.288-.177.18-.292.426-.292.696 0 .267.115.514.29.693h.002zm.486-.9v-.004c.052-.048.125-.082.207-.082.082 0 .155.034.207.082v.004c.052.05.082.12.082.206 0 .076-.03.152-.082.2-.055.055-.125.09-.207.09-.082 0-.158-.035-.206-.09-.05-.048-.08-.124-.08-.2 0-.085.03-.155.08-.206zm-3.147.9c.176.178.422.284.693.284.27 0 .516-.106.693-.285.175-.18.287-.427.287-.694 0-.27-.112-.516-.288-.696h-.005c-.176-.18-.422-.288-.69-.288-.27 0-.513.11-.692.288H8.53c-.176.18-.29.426-.29.696 0 .267.114.514.29.693h.003zm.486-.9v-.004c.05-.048.124-.082.206-.082.08 0 .152.034.203.082l.002.004c.052.05.082.12.082.206 0 .076-.033.152-.085.2-.052.055-.125.09-.204.09-.082 0-.155-.035-.207-.09-.052-.048-.086-.124-.086-.2 0-.085.034-.155.085-.206zM5.87 12.515c.176.176.422.285.69.285.27 0 .516-.11.692-.285h.003c.176-.18.286-.426.286-.696 0-.27-.11-.515-.286-.694h-.003c-.176-.18-.422-.288-.693-.288-.266 0-.512.11-.688.288h-.004c-.176.18-.29.423-.29.693 0 .27.114.515.29.695h.004zm.483-.9v-.003c.054-.05.124-.082.206-.082.083 0 .156.03.208.082v.003c.055.052.085.125.085.204 0 .078-.03.154-.085.206-.052.05-.125.085-.207.085-.08 0-.15-.033-.205-.084-.052-.052-.082-.128-.082-.207 0-.08.03-.153.082-.205zM14.82 0H.973c-.322 0-.58.258-.58.577V14.42c0 .32.258.58.58.58H14.82c.315 0 .573-.26.573-.58V.577c0-.32-.258-.577-.574-.577zM1.547 4.52h12.694v9.322H1.548v-9.32zm12.694-.692H1.548V1.152h1.136v.86c0 .32.26.58.578.58.316 0 .577-.26.577-.58v-.86h1.93v.86c0 .32.263.58.58.58.318 0 .576-.26.576-.58v-.86H8.86v.86c0 .32.26.58.578.58.316 0 .578-.26.578-.58v-.86h1.935v.86c0 .32.26.58.578.58.316 0 .578-.26.578-.58v-.86h1.136v2.676zm-5.71 8.687c.18.176.423.285.694.285.267 0 .513-.11.69-.285h.003c.175-.18.287-.426.287-.696 0-.27-.112-.515-.288-.694h-.005c-.176-.18-.422-.288-.69-.288-.27 0-.513.11-.692.288H8.53c-.176.18-.29.423-.29.693 0 .27.114.515.29.695h.003zm.487-.9v-.003c.05-.05.124-.082.206-.082.08 0 .152.03.203.082l.002.003c.052.052.082.125.082.204 0 .078-.03.154-.082.206H9.43c-.052.05-.125.085-.204.085-.082 0-.155-.033-.207-.084-.052-.052-.086-.128-.086-.207 0-.08.034-.153.085-.205zM3.206 9.9c.18.178.422.287.693.287.267 0 .516-.11.692-.288h.003c.177-.177.286-.424.286-.694 0-.267-.108-.513-.285-.693h-.003c-.176-.18-.425-.288-.692-.288-.27 0-.514.11-.693.288-.176.18-.29.426-.29.693 0 .27.114.517.29.693zm.486-.9c.052-.05.125-.083.207-.083.08 0 .155.034.206.082.052.054.082.124.082.206 0 .08-.03.155-.082.204v.003c-.05.05-.127.085-.206.085-.082 0-.155-.034-.207-.085V9.41c-.05-.05-.082-.125-.082-.204 0-.082.034-.152.083-.207zm-.486 3.515c.18.176.422.285.693.285.267 0 .516-.11.692-.285h.003c.177-.18.286-.426.286-.696 0-.27-.108-.515-.285-.694h-.003c-.176-.18-.425-.288-.692-.288-.27 0-.514.11-.693.288-.176.18-.29.423-.29.693 0 .27.114.515.29.695zm.486-.9v-.003c.052-.05.125-.082.207-.082.08 0 .155.03.206.082v.003c.052.052.082.125.082.204 0 .078-.03.154-.082.206-.05.05-.127.085-.206.085-.082 0-.155-.033-.207-.084-.05-.052-.082-.128-.082-.207 0-.08.034-.153.083-.205zM8.533 9.9c.18.178.422.287.693.287.267 0 .513-.11.69-.288h.003c.175-.177.287-.424.287-.694 0-.267-.112-.513-.288-.693h-.005c-.176-.18-.422-.288-.69-.288-.27 0-.513.11-.692.288H8.53c-.176.18-.29.426-.29.693 0 .27.114.517.29.693h.003zM9.02 9c.05-.05.124-.083.206-.083.08 0 .152.034.203.082h.002c.052.054.082.124.082.206 0 .08-.03.155-.082.204l-.003.003c-.052.05-.125.085-.204.085-.082 0-.155-.034-.207-.085V9.41c-.052-.05-.086-.125-.086-.204 0-.082.034-.152.085-.207zm2.175.9c.176.178.425.287.692.287.268 0 .517-.11.693-.288h.003c.176-.177.286-.424.286-.694 0-.267-.11-.513-.287-.693h-.003c-.176-.18-.425-.288-.693-.288-.267 0-.516.11-.692.288-.177.18-.292.426-.292.693 0 .27.115.517.292.693zm.486-.9c.052-.05.125-.083.207-.083.082 0 .155.034.207.082.052.054.082.124.082.206 0 .08-.03.155-.082.204v.003c-.052.05-.125.085-.207.085-.082 0-.155-.034-.206-.085V9.41c-.05-.05-.08-.125-.08-.204 0-.082.03-.152.08-.207z" fill="#333" fill-rule="evenodd"/></svg>