<svg width="14" height="15" viewBox="0 0 14 15" xmlns="http://www.w3.org/2000/svg"><path d="M9.143 7.286c0 1.26-1.027 2.285-2.286 2.285-1.26 0-2.286-1.025-2.286-2.284C4.57 6.026 5.6 5 6.858 5c1.26 0 2.286 1.027 2.286 2.286zm4.57-.974c0-.15-.106-.294-.258-.32l-1.634-.25c-.088-.296-.213-.59-.365-.876.304-.42.634-.812.938-1.223.045-.063.07-.125.07-.206 0-.07-.017-.142-.06-.196-.376-.526-1-1.08-1.474-1.517-.064-.053-.144-.09-.225-.09-.08 0-.16.028-.214.08l-1.267.957c-.26-.134-.527-.24-.803-.33L8.17.695C8.152.546 8.01.43 7.848.43H5.866c-.16 0-.286.106-.32.25-.144.534-.198 1.115-.26 1.66-.277.09-.554.205-.813.34L3.24 1.722c-.07-.053-.15-.09-.23-.09-.305 0-1.51 1.304-1.724 1.6-.045.062-.08.124-.08.204 0 .08.035.152.09.215.33.402.65.803.954 1.232-.143.268-.26.536-.348.82l-1.66.25c-.135.028-.242.19-.242.323V8.26c0 .15.107.294.26.32l1.633.24c.09.305.214.6.366.885-.305.42-.635.813-.94 1.224-.043.06-.07.124-.07.204 0 .07.018.143.063.205.375.517 1 1.07 1.473 1.5.062.062.143.097.223.097.08 0 .16-.026.222-.08l1.26-.955c.258.134.526.24.803.33l.25 1.643c.018.152.16.268.32.268H7.85c.16 0 .286-.107.322-.25.143-.536.196-1.116.26-1.66.275-.09.552-.206.81-.34l1.233.964c.072.045.152.08.232.08.304 0 1.51-1.312 1.724-1.598.052-.063.08-.126.08-.206 0-.08-.037-.16-.09-.223-.33-.4-.652-.794-.956-1.23.143-.26.25-.528.35-.814l1.65-.25c.143-.027.25-.187.25-.32V6.31z" fill="#FFF" fill-rule="evenodd"/></svg>