<svg width="14" height="15" viewBox="0 0 14 15" xmlns="http://www.w3.org/2000/svg"><path d="M1.14 7.288h2.017c.194 0 .354.163.354.358v6.997c0 .197-.16.357-.353.357H1.14c-.203 0-.353-.16-.353-.357V7.646c0-.195.15-.358.354-.358zm10.362-3.642h2.012c.198 0 .355.157.355.354v10.643c0 .197-.158.357-.356.357h-2.012c-.198 0-.358-.16-.358-.357V4c0-.197.16-.354.358-.354zM6.185 0H8.2c.198 0 .355.16.355.357v14.286c0 .197-.157.357-.354.357H6.186c-.194 0-.36-.16-.36-.357V.357c0-.197.166-.357.36-.357z" fill="#FFF" fill-rule="evenodd"/></svg>